<svg width="17" height="16" viewBox="0 0 17 16" fill="none" xmlns="http://www.w3.org/2000/svg">
<path d="M4.86693 11.1941C4.25982 10.1427 4.26322 8.90809 4.76349 7.89735L2.36557 6.51357C2.30622 6.47967 2.25195 6.44067 2.19429 6.40332C2.16377 6.58987 2.14342 6.77812 2.14342 6.97316V12.51C2.14342 14.4382 3.70529 16.0001 5.63345 16.0001C7.49208 16.0001 9.00816 14.5451 9.11331 12.7119C7.54298 13.3037 5.7301 12.6949 4.86354 11.1924L4.86693 11.1941Z" fill="#6F3FF5"/>
<path d="M5.6374 3.48313C6.85163 3.48313 7.91832 4.10381 8.54411 5.04328L10.942 3.6595C11.0014 3.62558 11.0624 3.59676 11.1235 3.56623C10.9776 3.44752 10.8233 3.33559 10.6554 3.23724L5.85959 0.467932C4.19086 -0.495304 2.0558 0.0761929 1.09257 1.7449C0.163248 3.35425 0.665216 5.39433 2.19995 6.40166C2.47298 4.74653 3.90597 3.48144 5.6391 3.48144L5.6374 3.48313Z" fill="#FFCC00"/>
<path d="M4.7656 7.89694C5.06068 7.3017 5.52703 6.78276 6.146 6.42661L8.54391 5.04113C7.91817 4.10164 6.84979 3.48096 5.63725 3.48096C3.90412 3.48096 2.46944 4.74605 2.1981 6.40121C2.25406 6.43851 2.31003 6.47751 2.36938 6.51141L4.7673 7.89524L4.7656 7.89694Z" fill="#8C65F7"/>
<path d="M15.7089 4.93438C14.7796 3.32503 12.7615 2.73996 11.1217 3.56414C12.4189 4.62743 12.7971 6.50305 11.9305 8.00383C11.3234 9.05527 10.2534 9.66916 9.12563 9.74211V12.5097C9.12563 12.5775 9.11888 12.6454 9.11548 12.7132C9.29183 12.6471 9.46652 12.5691 9.63437 12.4724L14.4302 9.70306C16.0989 8.73982 16.6721 6.6048 15.7072 4.93608L15.7089 4.93438Z" fill="#02E2AC"/>
<path d="M9.1272 9.74254C8.46416 9.78493 7.78242 9.63909 7.16343 9.28299L4.76552 7.89746C4.26356 8.9082 4.26186 10.1445 4.86897 11.1942C5.73555 12.695 7.54838 13.3055 9.11875 12.7136C9.12215 12.6458 9.1289 12.5797 9.1289 12.5101V9.74254H9.1272Z" fill="#5BF1CD"/>
<path d="M8.54376 5.04199L6.14584 6.42747C5.52688 6.78532 5.06052 7.30256 4.76544 7.89775L7.16337 9.28328C7.78237 9.64108 8.46406 9.78523 9.12715 9.74283V6.97357C9.12715 6.25958 8.91175 5.59653 8.54376 5.04369V5.04199Z" fill="white"/>
<path d="M8.54372 5.04128C8.91171 5.59412 9.12711 6.25721 9.12711 6.97115V9.74042C10.2531 9.66922 11.3249 9.05362 11.932 8.00219C12.7986 6.50141 12.4204 4.62749 11.1231 3.5625C11.062 3.59302 11.001 3.62015 10.9416 3.65577L8.54372 5.03958V5.04128Z" fill="#FFDB4C"/>
</svg>
